<?xml version="1.0" standalone="no"?><!DOCTYPE svg PUBLIC "-//W3C//DTD SVG 1.1//EN" "http://www.w3.org/Graphics/SVG/1.1/DTD/svg11.dtd"><svg t="1625541272037" class="icon" viewBox="0 0 1024 1024" version="1.1" xmlns="http://www.w3.org/2000/svg" p-id="3512" width="16" height="16" xmlns:xlink="http://www.w3.org/1999/xlink"><defs><style type="text/css"></style></defs><path d="M838.96 858.72a80.86 80.86 0 0 1-52.18-19.36l-73.28-61.74a26.74 26.74 0 0 0-17.34-6.58H256c-77.44 0-140.44-67.28-140.44-150V328.14c0-82.7 63-150 140.44-150h526.4c77.46 0 140.46 67.28 140.46 150v442c0 35.64-19.18 66.7-50 81.06a80 80 0 0 1-33.9 7.52zM256 232.3c-47.58 0-86.3 43-86.3 95.84v292.92c0 52.86 38.72 95.84 86.3 95.84h440.16a81.3 81.3 0 0 1 52.24 19.32L821.68 798a25.3 25.3 0 0 0 28.2 4.14c9.08-4.22 18.76-14.82 18.76-32v-442c0-52.84-38.72-95.84-86.32-95.84z" fill="#231815" p-id="3513"></path><path d="M356.02 470.06m-53.32 0a53.32 53.32 0 1 0 106.64 0 53.32 53.32 0 1 0-106.64 0Z" fill="#F6AE65" p-id="3514"></path><path d="M512 470.06m-53.32 0a53.32 53.32 0 1 0 106.64 0 53.32 53.32 0 1 0-106.64 0Z" fill="#F6AE65" p-id="3515"></path><path d="M672.46 470.06m-53.32 0a53.32 53.32 0 1 0 106.64 0 53.32 53.32 0 1 0-106.64 0Z" fill="#F6AE65" p-id="3516"></path></svg>