<?xml version="1.0" encoding="UTF-8"?>
<svg width="1440px" height="1024px" viewBox="0 0 1440 1024" version="1.1" xmlns="http://www.w3.org/2000/svg" xmlns:xlink="http://www.w3.org/1999/xlink">
    <title>10-Rocket</title>
    <defs>
        <linearGradient x1="50%" y1="0%" x2="50%" y2="100%" id="linearGradient-1">
            <stop stop-color="#DDEBFF" offset="0%"></stop>
            <stop stop-color="#AFD0FF" offset="100%"></stop>
        </linearGradient>
        <linearGradient x1="50%" y1="0%" x2="50%" y2="100%" id="linearGradient-2">
            <stop stop-color="#DDEBFF" offset="0%"></stop>
            <stop stop-color="#AFD0FF" offset="100%"></stop>
        </linearGradient>
        <linearGradient x1="50%" y1="0%" x2="50%" y2="100%" id="linearGradient-3">
            <stop stop-color="#AD7DFE" offset="0%"></stop>
            <stop stop-color="#5B62D9" offset="100%"></stop>
        </linearGradient>
        <linearGradient x1="50%" y1="0%" x2="50%" y2="100%" id="linearGradient-4">
            <stop stop-color="#FF9CCC" offset="0%"></stop>
            <stop stop-color="#FF73B7" offset="100%"></stop>
        </linearGradient>
        <linearGradient x1="50%" y1="0%" x2="50%" y2="100%" id="linearGradient-5">
            <stop stop-color="#FF9CCC" offset="0%"></stop>
            <stop stop-color="#FF73B7" offset="100%"></stop>
        </linearGradient>
        <linearGradient x1="50%" y1="0%" x2="50%" y2="100%" id="linearGradient-6">
            <stop stop-color="#DDEBFF" offset="0%"></stop>
            <stop stop-color="#AFD0FF" offset="100%"></stop>
        </linearGradient>
        <linearGradient x1="50%" y1="0%" x2="50%" y2="100%" id="linearGradient-7">
            <stop stop-color="#FF9CCC" offset="0%"></stop>
            <stop stop-color="#FF73B7" offset="100%"></stop>
        </linearGradient>
        <linearGradient x1="50%" y1="0%" x2="50%" y2="100%" id="linearGradient-8">
            <stop stop-color="#FF9CCC" offset="0%"></stop>
            <stop stop-color="#FF73B7" offset="100%"></stop>
        </linearGradient>
        <linearGradient x1="50%" y1="0%" x2="50%" y2="100%" id="linearGradient-9">
            <stop stop-color="#FF9CCC" offset="0%"></stop>
            <stop stop-color="#FF73B7" offset="100%"></stop>
        </linearGradient>
        <linearGradient x1="50%" y1="0%" x2="50%" y2="100%" id="linearGradient-10">
            <stop stop-color="#DDEBFF" offset="0%"></stop>
            <stop stop-color="#AFD0FF" offset="100%"></stop>
        </linearGradient>
        <linearGradient x1="32.3978332%" y1="13.8965641%" x2="50%" y2="146.758481%" id="linearGradient-11">
            <stop stop-color="#FFD7C2" offset="0%"></stop>
            <stop stop-color="#FFA5A5" offset="100%"></stop>
        </linearGradient>
        <linearGradient x1="50%" y1="0%" x2="50%" y2="100%" id="linearGradient-12">
            <stop stop-color="#485295" offset="0%"></stop>
            <stop stop-color="#303565" offset="100%"></stop>
        </linearGradient>
        <linearGradient x1="50%" y1="37.6587507%" x2="50%" y2="160.350478%" id="linearGradient-13">
            <stop stop-color="#FFD7C2" offset="0%"></stop>
            <stop stop-color="#FFA5A5" offset="100%"></stop>
        </linearGradient>
        <linearGradient x1="50%" y1="37.6587507%" x2="50%" y2="160.350478%" id="linearGradient-14">
            <stop stop-color="#FFD7C2" offset="0%"></stop>
            <stop stop-color="#FFA5A5" offset="100%"></stop>
        </linearGradient>
        <linearGradient x1="50%" y1="37.6587507%" x2="50%" y2="160.350478%" id="linearGradient-15">
            <stop stop-color="#FFD7C2" offset="0%"></stop>
            <stop stop-color="#FFA5A5" offset="100%"></stop>
        </linearGradient>
        <linearGradient x1="50%" y1="100%" x2="50%" y2="50%" id="linearGradient-16">
            <stop stop-color="#FF9CCC" offset="0%"></stop>
            <stop stop-color="#FF73B7" offset="100%"></stop>
        </linearGradient>
        <linearGradient x1="50%" y1="0%" x2="50%" y2="100%" id="linearGradient-17">
            <stop stop-color="#FF9CCC" offset="0%"></stop>
            <stop stop-color="#FF73B7" offset="100%"></stop>
        </linearGradient>
        <linearGradient x1="50%" y1="37.6587507%" x2="50%" y2="160.350478%" id="linearGradient-18">
            <stop stop-color="#FFD7C2" offset="0%"></stop>
            <stop stop-color="#FFA5A5" offset="100%"></stop>
        </linearGradient>
        <linearGradient x1="50%" y1="0%" x2="50%" y2="100%" id="linearGradient-19">
            <stop stop-color="#485295" offset="0%"></stop>
            <stop stop-color="#303565" offset="100%"></stop>
        </linearGradient>
        <linearGradient x1="50%" y1="0%" x2="50%" y2="100%" id="linearGradient-20">
            <stop stop-color="#485295" offset="0%"></stop>
            <stop stop-color="#303565" offset="100%"></stop>
        </linearGradient>
        <linearGradient x1="32.3978332%" y1="43.3408665%" x2="50%" y2="67.8467125%" id="linearGradient-21">
            <stop stop-color="#FFD7C2" offset="0%"></stop>
            <stop stop-color="#FFA5A5" offset="100%"></stop>
        </linearGradient>
        <linearGradient x1="50%" y1="0%" x2="50%" y2="100%" id="linearGradient-22">
            <stop stop-color="#485295" offset="0%"></stop>
            <stop stop-color="#303565" offset="100%"></stop>
        </linearGradient>
        <linearGradient x1="50%" y1="0%" x2="50%" y2="100%" id="linearGradient-23">
            <stop stop-color="#FF9CCC" offset="0%"></stop>
            <stop stop-color="#FF73B7" offset="100%"></stop>
        </linearGradient>
        <linearGradient x1="50%" y1="0%" x2="50%" y2="100%" id="linearGradient-24">
            <stop stop-color="#AD7DFE" offset="0%"></stop>
            <stop stop-color="#5B62D9" offset="100%"></stop>
        </linearGradient>
        <linearGradient x1="50%" y1="0%" x2="50%" y2="100%" id="linearGradient-25">
            <stop stop-color="#FF9CCC" offset="0%"></stop>
            <stop stop-color="#FF73B7" offset="100%"></stop>
        </linearGradient>
        <linearGradient x1="50%" y1="0%" x2="50%" y2="100%" id="linearGradient-26">
            <stop stop-color="#485295" offset="0%"></stop>
            <stop stop-color="#303565" offset="100%"></stop>
        </linearGradient>
    </defs>
    <g id="10-Rocket" stroke="none" stroke-width="1" fill="none" fill-rule="evenodd">
        <rect fill="#FAFEFF" x="0" y="0" width="1440" height="1024"></rect>
        <g id="Trees_BG" transform="translate(124.000000, 296.000000)">
            <path d="M77.7009531,413 C120.516164,413 155.224751,378.452251 155.224751,335.835443 C155.224751,293.218635 175.454289,125 132.639078,125 C89.8238662,125 0.177155231,293.218635 0.177155231,335.835443 C0.177155231,378.452251 34.8857418,413 77.7009531,413 Z" id="Shape" fill="#CDE2FF" fill-rule="nonzero" transform="translate(80.088578, 269.000000) scale(-1, 1) translate(-80.088578, -269.000000) "></path>
            <path d="M67.5640686,258.274365 L79.6534383,239.80899 C80.8634998,237.960735 83.3427551,237.443377 85.19101,238.653438 C87.039265,239.8635 87.5566231,242.342755 86.3465617,244.19101 L72.1968336,265.803388 C71.783568,266.434613 71.2222649,266.910603 70.5886187,267.215562 C77.877629,289.713534 83.988446,315.747724 88.9267104,345.323299 L104.824477,324.567705 C106.167797,322.813913 108.678502,322.481158 110.432295,323.824477 C112.186087,325.167797 112.518842,327.678502 111.175523,329.432295 L90.666749,356.207864 C96.9957245,397.585701 101.158241,445.511721 103.168476,499.99891 C103.249924,502.206547 101.526307,504.062217 99.3186701,504.146437 C97.1110331,504.225113 95.255363,502.501496 95.1739151,500.293859 C93.4954754,454.799955 90.3090168,413.951477 85.6230159,377.75619 C85.4169949,377.680384 85.2144742,377.58655 85.0174804,377.474135 L55.2269548,360.474135 C53.3082429,359.37922 52.6404238,356.936192 53.7353391,355.01748 C54.8302544,353.098768 57.273282,352.430949 59.191994,353.525865 L84.2861966,367.845902 C80.722967,342.476029 76.3871593,319.505145 71.2819108,298.936124 C70.8488399,298.857112 70.4215344,298.704709 70.0174804,298.474135 L40.2269548,281.474135 C38.3082429,280.37922 37.6404238,277.936192 38.7353391,276.01748 C39.8302544,274.098768 42.273282,273.430949 44.191994,274.525865 L68.5493154,288.4254 C61.0712836,260.958881 52.1037006,238.146367 41.6550252,219.995605 C40.552883,218.081035 41.2114859,215.635507 43.1260557,214.533365 C45.0406256,213.431222 47.4861539,214.089825 48.588296,216.004395 C55.5698591,228.132314 61.8943384,242.221591 67.5640686,258.274365 Z" id="Shape" fill="#F0F6FF"></path>
            <path d="M299.057905,367 C333.883824,367 362.115809,338.929954 362.115809,304.303797 C362.115809,269.677641 378.570528,133 343.744609,133 C308.91869,133 236,269.677641 236,304.303797 C236,338.929954 264.231986,367 299.057905,367 Z" id="Shape" fill="#CDE2FF" fill-rule="nonzero" transform="translate(301.000000, 250.000000) scale(-1, 1) translate(-301.000000, -250.000000) "></path>
            <path d="M290.868858,241.012452 L300.698757,225.993076 C301.682661,224.489742 303.69855,224.068933 305.201371,225.053173 C306.704192,226.037413 307.124858,228.053991 306.140954,229.557326 L294.635772,247.136413 C294.299744,247.649838 293.843347,248.036999 293.328128,248.285048 C299.254842,266.584459 304.223563,287.760161 308.238879,311.816357 L321.165397,294.934162 C322.257653,293.507662 324.299114,293.237006 325.725128,294.329635 C327.151141,295.422265 327.421705,297.464424 326.329448,298.890924 L309.653709,320.66965 C314.799816,354.325576 318.18437,393.307666 319.818897,437.626483 C319.885123,439.422132 318.483645,440.931497 316.68861,441 C314.893574,441.063994 313.384724,439.662037 313.318498,437.866389 C311.953755,400.862534 309.362836,367.637179 305.552637,338.196638 C305.38512,338.134979 305.22045,338.058657 305.060274,337.967221 L280.837517,324.139752 C279.277408,323.249169 278.734402,321.262058 279.624681,319.701415 C280.514959,318.140773 282.501392,317.597582 284.061501,318.488164 L304.465665,330.135804 C301.568394,309.500443 298.042937,290.816374 293.891845,274.085934 C293.539714,274.021667 293.192271,273.897706 292.863734,273.710161 L268.640977,259.882693 C267.080867,258.99211 266.537862,257.004999 267.42814,255.444356 C268.318419,253.883713 270.304851,253.340522 271.864961,254.231105 L291.669965,265.536716 C285.589557,243.195985 278.297991,224.640731 269.802145,209.877255 C268.90599,208.319981 269.441502,206.330836 270.998244,205.434375 C272.554986,204.537915 274.543451,205.073609 275.439606,206.630883 C281.116334,216.495496 286.258785,227.955439 290.868858,241.012452 Z" id="Shape" fill="#F0F6FF"></path>
            <path d="M175.071918,360 C227.578688,360 270.143836,317.655016 270.143836,265.419831 C270.143836,213.184646 294.952488,7 242.445718,7 C189.938948,7 80,213.184646 80,265.419831 C80,317.655016 122.565148,360 175.071918,360 Z" id="Shape" fill="#F0F6FF" transform="translate(178.000000, 183.500000) scale(-1, 1) translate(-178.000000, -183.500000) "></path>
            <path d="M162.803287,170.323868 L177.548135,147.667522 C179.023992,145.39978 182.047825,144.765 184.302057,146.249702 C186.556289,147.734403 187.187287,150.77636 185.71143,153.044102 L168.453657,179.561707 C167.949616,180.336197 167.265021,180.920219 166.492192,181.294394 C175.382262,208.898591 182.835345,240.841599 188.858319,277.129759 L208.248095,251.663397 C209.88648,249.511557 212.948671,249.10328 215.087692,250.751484 C217.226712,252.399688 217.632557,255.480232 215.994173,257.632072 L190.980564,290.484727 C198.699725,341.253835 203.776554,400.057326 206.228346,466.911135 C206.327684,469.619826 204.225468,471.896666 201.532915,472 C198.840361,472.096533 196.577086,469.981718 196.477748,467.273027 C194.430632,411.453653 190.544255,361.334049 184.828955,316.923743 C184.57768,316.830731 184.330675,316.715601 184.090411,316.577672 L147.756276,295.719287 C145.416111,294.375866 144.601603,291.378359 145.937021,289.024169 C147.272439,286.669979 150.252087,285.850589 152.592252,287.194011 L183.198498,304.764178 C178.85259,273.636262 173.564405,245.451819 167.337768,220.214374 C166.809571,220.11743 166.288406,219.930437 165.7956,219.647531 L129.461466,198.789147 C127.121301,197.445725 126.306793,194.448219 127.64221,192.094029 C128.977628,189.739839 131.957277,188.920449 134.297442,190.26387 L164.004947,207.318097 C154.884335,173.617673 143.946987,145.627543 131.203217,123.357215 C129.858985,121.008107 130.662253,118.007533 132.997366,116.655244 C135.332479,115.302956 138.315177,116.111038 139.659409,118.460146 C148.174501,133.340663 155.888177,150.627696 162.803287,170.323868 Z" id="Shape" fill="#CDE2FF" fill-rule="nonzero"></path>
            <path d="M135.814781,493.018182 C142.850117,503.729765 148.098486,510.174539 151.559888,512.352502 L21,510.490845 L52.8777778,501.085557 C35.3926841,484.868937 28.6389828,475.179812 32.616674,472.018182 C36.5943652,468.856552 52.3508681,471.389885 79.8861825,479.618182 C44.0427302,443.218182 33.9553487,424.684848 49.6240379,424.018182 C65.2927272,423.351515 86.0802071,441.018182 111.986478,477.018182 C97.8494014,452.997273 97.8494014,443.46394 111.986478,448.418182 C133.192092,455.849545 125.261778,476.950806 135.814781,493.018182 Z" id="Shape" fill="#CDE2FF" fill-rule="nonzero"></path>
            <path d="M188.338526,495.338056 C195.373861,505.928403 200.62223,512.300233 204.083633,514.453545 L73.5237446,512.612959 C80.4856148,511.996258 85.3414249,511.491966 88.091175,511.100084 C90.5782893,510.74563 78.6080198,502.415198 80.5634181,502 C88.5735537,500.299174 106.313939,506.034286 105.401522,503.314123 C103.14472,496.585978 47.2546743,476.101043 55.9098251,460.101043 C61.6799257,449.434376 82.6449236,457.101043 118.804819,483.101043 C105.487418,470.529179 102.20857,461.195846 108.968273,455.101043 C115.727976,449.00624 134.241959,457.300025 164.510222,479.982399 C150.373146,455.924533 150.373146,446.344684 164.510222,451.242853 C185.715837,458.590105 177.785522,479.452536 188.338526,495.338056 Z" id="Shape" fill="#F0F6FF"></path>
            <path d="M895.523798,381 C938.339009,381 973.047596,346.452251 973.047596,303.835443 C973.047596,261.218635 993.277134,93 950.461922,93 C907.646711,93 818,261.218635 818,303.835443 C818,346.452251 852.708587,381 895.523798,381 Z" id="Shape" fill="#CDE2FF" fill-rule="nonzero"></path>
            <path d="M910.435931,226.274365 C916.105662,210.221591 922.430141,196.132314 929.411704,184.004395 C930.513846,182.089825 932.959374,181.431222 934.873944,182.533365 C936.788514,183.635507 937.447117,186.081035 936.344975,187.995605 C925.896299,206.146367 916.928716,228.958881 909.450685,256.4254 L933.808006,242.525865 C935.726718,241.430949 938.169746,242.098768 939.264661,244.01748 C940.359576,245.936192 939.691757,248.37922 937.773045,249.474135 L907.98252,266.474135 C907.578466,266.704709 907.15116,266.857112 906.718089,266.936124 C901.612841,287.505145 897.277033,310.476029 893.713803,335.845902 L918.808006,321.525865 C920.726718,320.430949 923.169746,321.098768 924.264661,323.01748 C925.359576,324.936192 924.691757,327.37922 922.773045,328.474135 L892.98252,345.474135 C892.785526,345.58655 892.583005,345.680384 892.376984,345.75619 C887.690983,381.951477 884.504525,422.799955 882.826085,468.293859 C882.744637,470.501496 880.888967,472.225113 878.68133,472.146437 C876.473693,472.062217 874.750076,470.206547 874.831524,467.99891 C876.841759,413.511721 881.004276,365.585701 887.333251,324.207864 L866.824477,297.432295 C865.481158,295.678502 865.813913,293.167797 867.567705,291.824477 C869.321498,290.481158 871.832203,290.813913 873.175523,292.567705 L889.07329,313.323299 C894.011554,283.747724 900.122371,257.713534 907.411381,235.215562 C906.777735,234.910603 906.216432,234.434613 905.803166,233.803388 L891.653438,212.19101 C890.443377,210.342755 890.960735,207.8635 892.80899,206.653438 C894.657245,205.443377 897.1365,205.960735 898.346562,207.80899 L910.435931,226.274365 L910.435931,226.274365 Z" id="Path" fill="#F0F6FF"></path>
            <path d="M1036.07192,353 C1088.57869,353 1131.14384,310.655016 1131.14384,258.419831 C1131.14384,206.184646 1155.95249,0 1103.44572,0 C1050.93895,0 941,206.184646 941,258.419831 C941,310.655016 983.565148,353 1036.07192,353 Z" id="Shape" fill="#F0F6FF"></path>
            <path d="M1054.19671,163.323868 C1061.11182,143.627696 1068.8255,126.340663 1077.34059,111.460146 C1078.68482,109.111038 1081.66752,108.302956 1084.00263,109.655244 C1086.33775,111.007533 1087.14101,114.008107 1085.79678,116.357215 C1073.05301,138.627543 1062.11566,166.617673 1052.99505,200.318097 L1082.70256,183.26387 C1085.04272,181.920449 1088.02237,182.739839 1089.35779,185.094029 C1090.69321,187.448219 1089.8787,190.445725 1087.53853,191.789147 L1051.2044,212.647531 C1050.71159,212.930437 1050.19043,213.11743 1049.66223,213.214374 C1043.43559,238.451819 1038.14741,266.636262 1033.8015,297.764178 L1064.40775,280.194011 C1066.74791,278.850589 1069.72756,279.669979 1071.06298,282.024169 C1072.3984,284.378359 1071.58389,287.375866 1069.24372,288.719287 L1032.90959,309.577672 C1032.66932,309.715601 1032.42232,309.830731 1032.17105,309.923743 C1026.45575,354.334049 1022.56937,404.453653 1020.52225,460.273027 C1020.42291,462.981718 1018.15964,465.096533 1015.46709,465 C1012.77453,464.896666 1010.67232,462.619826 1010.77165,459.911135 C1013.22345,393.057326 1018.30028,334.253835 1026.01944,283.484727 L1001.00583,250.632072 C999.367443,248.480232 999.773288,245.399688 1001.91231,243.751484 C1004.05133,242.10328 1007.11352,242.511557 1008.75191,244.663397 L1028.14168,270.129759 C1034.16465,233.841599 1041.61774,201.898591 1050.50781,174.294394 C1049.73498,173.920219 1049.05038,173.336197 1048.54634,172.561707 L1031.28857,146.044102 C1029.81271,143.77636 1030.44371,140.734403 1032.69794,139.249702 C1034.95217,137.765 1037.97601,138.39978 1039.45186,140.667522 L1054.19671,163.323868 Z" id="Path" fill="#CDE2FF" fill-rule="nonzero"></path>
            <path d="M1058.74511,463.338056 C1069.29811,447.452536 1061.3678,426.590105 1082.57341,419.242853 C1096.71049,414.344684 1096.71049,423.924533 1082.57341,447.982399 C1112.84167,425.300025 1131.35566,417.00624 1138.11536,423.101043 C1144.87506,429.195846 1141.59621,438.529179 1128.27881,451.101043 C1164.43871,425.101043 1185.40371,417.434376 1191.17381,428.101043 C1196.94391,438.76771 1180.44668,453.17207 1141.68211,471.314123 L1173.55989,480.612959 L1043,482.453545 C1046.4614,480.300233 1051.70977,473.928403 1058.74511,463.338056 Z" id="Shape" fill="#F0F6FF"></path>
            <path d="M993.745107,464.018182 C1004.29811,447.950806 996.367796,426.849545 1017.57341,419.418182 C1031.71049,414.46394 1031.71049,423.997273 1017.57341,448.018182 C1043.47968,412.018182 1064.26716,394.351515 1079.93585,395.018182 C1095.60454,395.684848 1085.51716,414.218182 1049.67371,450.618182 C1077.20902,442.389885 1092.96552,439.856552 1096.94321,443.018182 C1100.92091,446.179812 1094.1672,455.868937 1076.68211,472.085557 L1108.55989,481.490845 L978,483.352502 C981.461402,481.174539 986.709771,474.729765 993.745107,464.018182 Z" id="Shape" fill="#CDE2FF" fill-rule="nonzero"></path>
        </g>
        <g id="Rocket" transform="translate(210.000000, 105.000000)">
            <path d="M526.793343,409.064311 C557.125762,527.327494 411.194648,642.320344 89,754.04286 L706.977402,750.049541 C472.424127,640.84286 570.776797,470.04286 610.12405,457.04286 C649.471304,444.04286 604.603603,350.603142 526.793343,409.064311 Z" id="Shape" fill="url(#linearGradient-1)"></path>
            <path d="M94.9888074,754 L5.68434189e-14,754 C60.657953,743.534369 88,717.25527 88,709.5 C88,645.711111 128.679408,594 178.86,594 C197.201177,594 214.273064,600.908228 228.55328,612.789442 C231.225822,611.629422 234.091754,611 237.073333,611 C243.328207,611 249.074124,613.770043 253.593333,618.397733 C258.112543,613.770043 263.85846,611 270.113333,611 C283.83756,611 295.111487,624.335989 296.353146,641.369871 C304.142398,637.265331 312.683088,635 321.64,635 C351.113006,635 376.079322,659.528098 384.595691,693.402191 C389.641972,690.571729 395.223261,689 401.093333,689 C423.685461,689 442,712.281193 442,741 C442,745.488894 441.552553,749.844941 440.711261,754 L94.9888074,754 Z" id="Shape" fill="url(#linearGradient-2)"></path>
            <path d="M757.971608,239.485022 C732.299205,296.729574 686.730644,366.891471 621.265925,449.970711 C606.84353,453.476396 587.638996,449.379698 563.652326,437.680618 C539.665656,425.981537 524.613923,413.370337 518.497127,399.847019 C543.660356,297.111429 570.893878,218.006936 600.197692,162.533541 C629.501505,107.060146 688.366511,53.1083243 776.792707,0.678075214 C789.91771,102.638154 783.64401,182.240469 757.971608,239.485022 Z" id="Shape" fill="url(#linearGradient-3)"></path>
            <path d="M697.776326,53.9611028 C720.787931,36.0288366 747.126724,18.2678274 776.792707,0.678075214 C781.209409,34.9887119 783.429414,66.7675709 783.452724,96.0146521 C768.964538,93.3799297 753.526197,88.3518124 738.208866,80.8810512 C722.587321,73.2619146 708.890332,63.9794247 697.776326,53.9611028 L697.776326,53.9611028 Z" id="Shape" fill="url(#linearGradient-4)"></path>
            <ellipse id="Shape" fill="url(#linearGradient-5)" transform="translate(688.431689, 180.658216) rotate(-334.000000) translate(-688.431689, -180.658216) " cx="688.431689" cy="180.658216" rx="47.5" ry="64.5"></ellipse>
            <ellipse id="Shape" fill="url(#linearGradient-6)" transform="translate(688.431689, 180.658216) rotate(-334.000000) translate(-688.431689, -180.658216) " cx="688.431689" cy="180.658216" rx="39.5" ry="53.5"></ellipse>
            <path d="M679.742387,371.01424 C690.243847,400.286728 695.238676,421.117887 694.726873,433.507718 C694.21507,445.897549 687.493379,459.679058 674.5618,474.852244 L621.532952,448.988347 L679.742387,371.01424 Z" id="Shape" fill="url(#linearGradient-7)"></path>
            <polygon id="Shape" fill="url(#linearGradient-8)" points="604.340278 338.243541 616.024601 343.942366 566.927032 444.607299 555.24271 438.908474"></polygon>
            <path d="M544.771786,305.85224 L519.725206,399.333391 L466.696357,373.469493 C470.691516,353.937724 477.413207,340.156215 486.86143,332.124967 C496.309652,324.09372 514.686902,314.884405 544.771786,305.85224 Z" id="Shape" fill="url(#linearGradient-9)"></path>
            <path d="M918.115923,754 L478.638227,754 C477.568789,749.844941 477,745.488894 477,741 C477,712.281193 500.281193,689 529,689 C536.461956,689 543.556815,690.571729 549.971579,693.402191 C560.797472,659.528098 592.534314,635 630,635 C641.385905,635 652.242715,637.265331 662.144306,641.369871 C663.722686,624.335989 678.05395,611 695.5,611 C703.45111,611 710.755242,613.770043 716.5,618.397733 C722.244758,613.770043 729.54889,611 737.5,611 C741.290143,611 744.933277,611.629422 748.330576,612.789442 C766.483393,600.908228 788.184945,594 811.5,594 C875.288889,594 927,645.711111 927,709.5 C927,718.800804 945.413986,693.365809 970.789119,702.383374 C988.442397,708.656821 979.90904,743.534369 1068,754 L918.115923,754 Z" id="Shape" fill="url(#linearGradient-10)"></path>
        </g>
        <g id="Man" transform="translate(423.000000, 228.000000)">
            <path d="M113.849446,284.067534 C119.754062,256.183295 124.363915,240.66445 127.679003,237.510999 C129.812224,235.48179 136.589658,251.439153 141.932961,264.8 C146.315948,257.140386 151.007411,252.091332 157.436148,241.108204 C165.107702,228.001797 172.00914,212.657368 177.593994,208.854159 C186.770197,202.605291 209.130002,207.784539 211.128651,214.061494 C211.652991,215.708237 208.035106,227.511483 207.889266,229.11755 C207.692996,231.278966 219.068635,247.015195 216.037362,252.745772 C213.006089,258.476348 201.852323,230.684907 195.262333,232.232171 C195.262333,235.707626 191.251122,239.314371 188.975887,237.510999 C186.700653,235.707626 185.321658,233.335362 184.6815,234.217115 C172.285736,251.291028 160.88281,297.935059 147.023257,301.645806 C137.783555,304.119637 126.725618,298.260213 113.849446,284.067534 Z" id="Shape" fill="url(#linearGradient-11)" fill-rule="nonzero"></path>
            <path d="M66.6055738,234.550145 C56.5186375,233.982067 73.0209458,206.506075 106.624748,190.748392 C125.91522,196.406318 124.251468,223.130594 137.567596,233.55971 C142.668086,237.554384 114.594313,268.133512 107.886276,264.27676 C88.074029,252.885809 77.908896,235.186728 66.6055738,234.550145 Z" id="Shape" fill="url(#linearGradient-12)"></path>
            <path d="M57.9851024,125.338624 C80.3523468,128.975697 88.2426513,138.204254 86.1450207,139.27305 C84.0473901,140.341846 83.960284,150.603245 85.8837026,170.057247 C89.534525,172.318381 94.7636655,175.050196 101.571124,178.252691 C111.782312,183.056434 118.894967,218.795296 121.699423,241.537633 C123.569061,256.699192 132.425507,277.55067 128.917822,313.67557 C76.2189689,351.70092 50.0340329,365.042811 50.3630143,353.701244 C51.0616221,329.616881 43.9370719,296.836307 28.9893637,255.359523 C15.4518627,218.974268 11.7753046,195.934602 17.9596894,186.240522 C27.2362665,171.699403 34.6233117,182.355921 48.3937024,170.733618 C57.5739628,162.985416 57.5739628,146.028948 57.9851024,125.338624 Z" id="Shape" fill="url(#linearGradient-13)" fill-rule="nonzero"></path>
            <path d="M40.1568271,663.767209 L37.0036496,671.582668 L60.8986228,676.390104 C67.9136016,654.76671 71.46837,638.524983 71.5629282,627.664923 C72.3473314,537.575698 54.1729552,592.773686 44.7932961,633 C42.0636516,644.706559 41.576452,659.473046 40.1568271,663.767209 Z" id="Shape" fill="url(#linearGradient-14)" fill-rule="nonzero"></path>
            <path d="M159.478102,671.582668 L185.395471,674.017637 C181.536085,655.850691 179.653672,641.337188 179.74823,630.477128 C180.275855,569.87908 171.897676,572.242546 154.613693,637.567525 L159.478102,671.582668 Z" id="Shape" fill="url(#linearGradient-15)" fill-rule="nonzero"></path>
            <path d="M55.2923352,354.122875 C59.742147,330.448586 87.6918345,321.378038 139.141398,326.911232 C163.949815,386.404777 177.933096,435.619476 181.091241,474.555327 C184.249386,513.491178 188.556394,565.560817 185.398249,636 C172.016101,645.547874 156.860248,649.616408 148.544705,642.969845 C136.071391,633 148.989373,629.65292 139.141398,611.383374 C129.293423,593.113828 129.561368,520.084012 124.137046,505.523881 C101.349239,444.356152 52.0826038,371.199578 55.2923352,354.122875 Z" id="Shape" fill="url(#linearGradient-16)"></path>
            <path d="M48.1043374,333.500059 C39.7683942,348.750293 57.6828759,431.724239 60.4308777,496.931607 C60.8678354,507.300185 39.3721942,554.227123 39.3721942,604.487689 C39.3721942,627.552934 36.4490927,620.390104 39.3721942,630.675653 C42.2952958,640.961201 68.9968616,647.81543 75.8997351,642.961541 C82.8026086,638.107652 78.0128335,626.151909 79.2183699,622 C91.8591491,578.464725 104.394274,539.580514 112.649635,504.884485 C121.692301,466.879536 129.565242,409.751394 136.268459,333.500059 C89.0489141,312.357896 59.6608735,312.357896 48.1043374,333.500059 Z" id="Shape" fill="url(#linearGradient-17)"></path>
            <path d="M54.6902983,100.701392 C52.9148103,81.7099792 64.7117873,64.0628641 82.9300184,59.856854 C102.878648,55.25135 120.117541,45.0659299 131.215533,71.2257554 C142.313525,97.385581 115.639921,158.858025 105.345056,156.947047 C84.0550821,152.995109 72.0688873,142.877011 64.8516114,130.855413 C64.7585466,130.878638 64.6650911,130.901088 64.5712503,130.922753 C55.9727031,132.907884 47.3948604,127.554983 45.4121025,118.966715 C43.6462798,111.318097 47.7068619,103.682831 54.6902983,100.701392 L54.6902983,100.701392 Z" id="Shape" fill="url(#linearGradient-18)" fill-rule="nonzero"></path>
            <ellipse id="Shape" fill="#423565" fill-rule="nonzero" cx="110.40146" cy="104.998236" rx="2.40145985" ry="2.99823633"></ellipse>
            <ellipse id="Shape" fill="#423565" fill-rule="nonzero" cx="129.40146" cy="101.998236" rx="2.40145985" ry="2.99823633"></ellipse>
            <path d="M107.126709,77.0284021 C104.144872,89.4687046 97.0046618,94.3711337 85.7060771,91.7356894 C90.4495755,100.224065 87.2705049,108.359806 76.1688653,116.142914 C72.2284276,110.293949 66.3752982,105.747224 58.6094771,102.502737 C51.722924,99.6255993 38.5851327,120.473865 64.8534418,131.814273 C62.913134,135.076945 60.3540977,138.843915 57.1763329,143.115184 C50.7394383,131.944675 46.0337553,124.606966 43.0592839,121.102057 C34.4863336,111.000293 26.6712874,104.086745 25.3630559,97.3564777 C23.3739683,87.1235092 29.558145,79.6362016 43.9155859,74.894555 C40.245212,61.6117951 43.1764422,51.9251516 52.7092766,45.8346246 C62.2421111,39.7440976 71.0956722,38.5999864 79.2699602,42.402291 C86.494023,7.90590693 105.539731,-5.54207705 136.407083,2.05833904 C182.708111,13.4589632 163.118659,76.6882077 138.926506,81.390686 C122.798403,84.5256716 112.198471,83.0715769 107.126709,77.0284021 Z" id="Shape" fill="#423565" fill-rule="nonzero"></path>
            <path d="M34.8422458,665.39729 C31.2267011,673.928689 29.5765455,690.289752 41.7095349,690.289752 C53.8425243,690.289752 117.270372,693.231136 110.679732,687.858226 C106.285972,684.276287 90.6591889,676.789308 63.7993836,665.39729 C58.9681196,669.911119 54.6247035,671.082794 50.7691353,668.912317 C47.3346137,666.978866 38.4577905,656.86589 34.8422458,665.39729 Z" id="Shape" fill="url(#linearGradient-19)"></path>
            <path d="M154.915238,665.39729 C151.299694,673.928689 149.649538,690.289752 161.782528,690.289752 C173.915517,690.289752 237.343364,693.231136 230.752724,687.858226 C226.358964,684.276287 210.732182,676.789308 183.872376,665.39729 C179.041112,669.911119 174.697696,671.082794 170.842128,668.912317 C167.407606,666.978866 158.530783,656.86589 154.915238,665.39729 Z" id="Shape" fill="url(#linearGradient-19)"></path>
            <path d="M45.3772753,173.288922 C47.4793446,172.474314 70.1015801,196.710419 84.8064107,190.163407 C94.6096311,185.798732 96.1015269,179.871437 89.2820983,172.381522 C92.8095788,174.830626 98.2553343,175.570457 104.885858,179.124839 C114.831643,184.45641 129.610361,218.501644 131.220732,241.359588 C132.007744,252.530605 129.426009,270.217311 129.518721,290.5889 C129.55248,298.006643 135.381058,322.110496 147.514953,331.009098 C159.053016,339.470737 136.805404,355.822966 111.371651,366.345871 C77.4273939,380.389892 23.3223248,381.696355 31.1360353,359.730796 C40.2482804,334.114854 39.203387,299.06768 28.001355,254.589274 C6.16602842,219.508727 -1.41000578,197.28989 5.27325241,187.932762 C13.550377,176.344085 35.4222114,177.146773 45.3772753,173.288922 Z" id="Shape" fill="url(#linearGradient-20)"></path>
            <path d="M35.0771555,254.037691 C30.0523158,240.075427 71.2790568,235.224744 74.7096521,245.770228 C79.5500206,260.649287 84.7272705,272.404355 90.2414018,281.035431 C101.452829,282.417402 110.110815,284.070292 116.21536,285.994101 C138.260388,292.941454 175.374363,303.492744 184.060733,300.132902 C185.049429,299.75048 189.832952,285.512822 193.782455,285.666952 C197.731958,285.821082 191.072517,298.772882 197.731958,298.32263 C204.391399,297.872378 232.232699,295.846898 235.614151,298.32263 C238.995603,300.798363 216.678156,301.590531 213.328509,306.282938 C209.274597,311.961926 197.108958,316.166314 195.92068,316.540009 C163.985824,326.583017 77.5908896,316.924081 70.381324,314.851028 C52.3545623,309.667576 44.7932961,281.035431 35.0771555,254.037691 Z" id="Shape" fill="url(#linearGradient-21)" fill-rule="nonzero"></path>
            <polygon id="Shape" fill="url(#linearGradient-22)" points="242 285 265 285 265 287 242 287"></polygon>
            <circle id="Shape" fill="url(#linearGradient-23)" cx="267" cy="286" r="4"></circle>
            <path d="M198,276 L239,276 C241.209139,276 243,277.790861 243,280 L243,294 C243,296.209139 241.209139,298 239,298 L198,298 C195.790861,298 194,296.209139 194,294 L194,280 C194,277.790861 195.790861,276 198,276 Z" id="Shape" fill="url(#linearGradient-24)"></path>
            <path d="M210,265 L227,265 C230.313708,265 233,267.686292 233,271 L233,277 L204,277 L204,271 C204,267.686292 206.686292,265 210,265 Z" id="Shape" fill="url(#linearGradient-25)"></path>
            <ellipse id="Shape" fill="#423565" fill-rule="nonzero" cx="129.604015" cy="92.3985891" rx="6.6040146" ry="2.39858907"></ellipse>
            <ellipse id="Shape" fill="#423565" fill-rule="nonzero" cx="105.604015" cy="95.3985891" rx="6.6040146" ry="2.39858907"></ellipse>
            <path d="M121.058023,103.657063 C121.026299,103.327406 121.268141,103.034479 121.598192,103.002793 C121.928243,102.971107 122.22152,103.212659 122.253245,103.542316 C123.131084,112.664219 124.295258,118.403465 125.692492,120.666882 C126.616027,122.162941 126.222457,123.434441 124.61723,124.110906 C123.250957,124.686673 120.918754,124.899128 117.578163,124.775607 C117.246817,124.763356 116.988152,124.485136 117.000419,124.154187 C117.012685,123.823238 117.291238,123.564882 117.622583,123.577134 C120.799596,123.694606 122.98971,123.495095 124.150465,123.005936 C125.072266,122.617476 125.210436,122.171092 124.670423,121.296309 C123.140559,118.81804 121.954184,112.969349 121.058023,103.657063 Z" id="Shape" fill="#EF6949" fill-rule="nonzero"></path>
            <path d="M108.37794,138.225637 C108.070207,138.103239 107.920144,137.754284 108.042766,137.446224 C108.165387,137.138164 108.514258,136.987654 108.821991,137.110052 C112.780943,138.684689 115.371509,138.073672 116.836296,135.318809 C116.99196,135.026048 117.355197,134.914758 117.647608,135.070235 C117.940019,135.225713 118.050874,135.589083 117.895211,135.881844 C116.109841,139.239634 112.856549,140.006963 108.37794,138.225637 Z" id="Shape" fill="#EF6949" fill-rule="nonzero"></path>
            <path d="M55.1852357,117.592954 C55.1100739,117.915509 54.7873478,118.116134 54.4644066,118.041062 C54.1414655,117.96599 53.9406006,117.64365 54.0157623,117.321095 C55.532535,110.811895 57.7836283,107.974254 60.8543018,109.331671 C63.5952838,110.543345 66.6448076,114.730593 70.1127357,121.923348 C70.2565974,122.221729 70.1310457,122.580097 69.8323082,122.723787 C69.5335707,122.867477 69.1747732,122.742075 69.0309116,122.443695 C65.6832017,115.500281 62.7590578,111.48519 60.3683424,110.428355 C58.3073184,109.517262 56.5511963,111.730962 55.1852357,117.592954 Z" id="Shape" fill="#EF6949" fill-rule="nonzero"></path>
            <path d="M76.5772835,241.724876 C90.4387857,261.628181 22.1940069,286.989827 20.0252504,269.32507 C17.8564939,251.660314 3.07462082,209.069714 0.860047228,198.048157 C-2.41110511,181.768187 16.016101,175.392273 35.4337397,175.392273 C44.4753758,175.392273 67.336282,228.456005 76.5772835,241.724876 Z" id="Shape" fill="url(#linearGradient-26)"></path>
            <path d="M65.6315189,115.076962 C65.9614695,115.109678 66.2023945,115.403357 66.16964,115.732913 C66.1368854,116.062469 65.8428548,116.303106 65.5129042,116.270391 C62.0858526,115.93059 60.8790112,116.650572 61.287517,118.446255 C61.3609846,118.7692 61.1584305,119.090484 60.8350998,119.163863 C60.511769,119.237243 60.1901004,119.034931 60.1166327,118.711987 C59.4736577,115.885639 61.5135741,114.668658 65.6315189,115.076962 Z" id="Shape" fill="#EF6949" fill-rule="nonzero"></path>
            <path d="M152.961319,51.4058754 C159.019129,47.5038415 160.527055,40.4799477 157.052364,33.8788166 C156.898066,33.5856844 157.010897,33.2231198 157.30438,33.0690059 C157.597863,32.914892 157.960862,33.0275886 158.11516,33.3207208 C161.868784,40.4517626 160.21362,48.1614908 153.612083,52.4137569 C151.249108,53.9358268 147.112318,55.5900316 142.814418,56.7890288 C144.80534,59.5326938 145.361051,62.3192846 143.712677,64.3181815 C140.056665,68.7516371 132.654431,70.3290369 121.536841,69.1465449 C121.207133,69.1114763 120.968314,68.8160859 121.003425,68.4867718 C121.038535,68.1574577 121.334279,67.9189245 121.663988,67.9539931 C132.42049,69.0980791 139.450823,67.5999306 142.785855,63.5557115 C144.066637,62.0025748 143.45595,59.5790681 141.554844,57.1260395 C139.767405,57.5837566 137.979287,57.9535003 136.305202,58.1934926 C132.801003,58.6958453 129.91227,58.6379551 127.910444,57.9266294 C125.501257,57.0705527 124.39774,55.2639802 124.911273,52.6329993 C125.422464,50.0140193 127.229688,48.740612 129.846813,48.850549 C132.054644,48.9432929 134.77747,50.0245887 137.394696,51.7682463 C139.220377,52.9845574 140.79294,54.3562217 142.00505,55.7672829 C146.364477,54.5902421 150.616426,52.9162974 152.961319,51.4058754 Z M136.728406,52.7659566 C134.278692,51.1338992 131.753244,50.1309868 129.796358,50.0487843 C127.746863,49.9626916 126.481835,50.8540564 126.089815,52.8624857 C125.692975,54.8956176 126.449844,56.1346923 128.312909,56.7967107 C130.0927,57.4291388 132.80619,57.4835171 136.134611,57.0063635 C137.589777,56.7977547 139.13576,56.4876597 140.691036,56.1059961 C139.621794,54.9427558 138.279344,53.7992275 136.728406,52.7659566 Z" id="Shape" fill="#FFFFFF" fill-rule="nonzero"></path>
            <polygon id="Shape" fill="#EF6949" fill-rule="nonzero" points="67.8293911 135.595072 85.3858639 162.145999 84.0736984 148.61424"></polygon>
        </g>
    </g>
</svg>