<?xml version="1.0" standalone="no"?><!DOCTYPE svg PUBLIC "-//W3C//DTD SVG 1.1//EN" "http://www.w3.org/Graphics/SVG/1.1/DTD/svg11.dtd"><svg t="1625135210779" class="icon" viewBox="0 0 1024 1024" version="1.1" xmlns="http://www.w3.org/2000/svg" p-id="2549" width="32" height="32" xmlns:xlink="http://www.w3.org/1999/xlink"><defs><style type="text/css"></style></defs><path d="M717.154 698.893c-9.841 9.665-25.656 9.522-35.319-0.318l-157.178-160.05-157.178 160.05c-9.666 9.84-25.478 9.983-35.319 0.318-9.842-9.664-9.985-25.479-0.322-35.319L489.65 502.879 331.838 342.184c-9.663-9.841-9.52-25.658 0.322-35.319 9.841-9.666 25.653-9.523 35.319 0.317l157.178 160.05 157.178-160.05c9.663-9.84 25.478-9.983 35.319-0.317 9.841 9.661 9.985 25.478 0.321 35.319L559.663 502.879l157.812 160.695c9.664 9.84 9.52 25.655-0.321 35.319z m229.713 83.48c-7.294 11.706-22.697 15.284-34.405 7.991-11.706-7.292-15.285-22.696-7.992-34.404 45.244-72.624 69.579-156.469 69.579-243.961C974.049 256.82 767.182 49.952 512 49.952S49.952 256.82 49.952 511.999c0 255.181 206.866 462.048 462.048 462.048 106.002 0 206.471-35.768 287.646-100.434 10.789-8.592 26.503-6.814 35.096 3.975 8.593 10.792 6.816 26.507-3.973 35.099C740.825 984.33 629.411 1023.999 512 1023.999c-282.771 0-512-229.228-512-512S229.229-0.002 512-0.002c282.769 0 512 229.229 512 512.001 0 96.897-26.987 189.882-77.133 270.374z" p-id="2550" fill="#bfbfbf"></path></svg>