<?xml version="1.0" standalone="no"?><!DOCTYPE svg PUBLIC "-//W3C//DTD SVG 1.1//EN" "http://www.w3.org/Graphics/SVG/1.1/DTD/svg11.dtd"><svg t="1625541333149" class="icon" viewBox="0 0 1024 1024" version="1.1" xmlns="http://www.w3.org/2000/svg" p-id="4665" xmlns:xlink="http://www.w3.org/1999/xlink" width="16" height="16"><defs><style type="text/css"></style></defs><path d="M716.8 70.4a134.4 134.4 0 1 1-91.008 233.312l-259.52 165.248c4.576 13.504 7.04 27.968 7.04 43.04 0 20.608-4.608 40.128-12.896 57.568l247.008 171.52a134.4 134.4 0 1 1-24 61.312l-263.584-183.04a134.4 134.4 0 1 1 12.064-204.384l258.432-164.576A134.4 134.4 0 0 1 716.8 70.4z m0 678.4a70.4 70.4 0 1 0 0 140.8 70.4 70.4 0 0 0 0-140.8zM238.944 441.6a70.4 70.4 0 1 0 0 140.8 70.4 70.4 0 0 0 0-140.8zM716.8 134.4a70.4 70.4 0 1 0 0 140.8 70.4 70.4 0 0 0 0-140.8z" p-id="4666"></path></svg>