<?xml version="1.0" standalone="no"?><!DOCTYPE svg PUBLIC "-//W3C//DTD SVG 1.1//EN" "http://www.w3.org/Graphics/SVG/1.1/DTD/svg11.dtd"><svg t="1625541390227" class="icon" viewBox="0 0 1024 1024" version="1.1" xmlns="http://www.w3.org/2000/svg" p-id="6378" xmlns:xlink="http://www.w3.org/1999/xlink" width="16" height="16"><defs><style type="text/css"></style></defs><path d="M935.161672 137.608078C878.432647 79.097476 803.01498 46.860261 722.8021 46.860261c-75.470879 0-147.870816 28.883841-203.847711 81.401961l-6.977925 6.487761-6.978948-6.535857C449.019597 75.744101 376.642173 46.860261 301.17641 46.860261c-80.21288 0-155.61622 32.257681-212.359572 90.74884-57.047274 58.911738-88.469937 137.123031-88.469937 220.35978 0 83.259262 31.422663 161.470555 88.469937 220.407875l360.713388 372.063901c16.698311 17.207917 38.884612 26.699082 62.466704 26.699082 23.586185 0 45.77351-9.491165 62.47182-26.699082 0 0 356.737844-367.969653 360.691899-372.063901 57.068763-58.909691 88.491427-137.123031 88.491427-220.407875C1023.653099 274.753621 992.207923 196.540282 935.161672 137.608078L935.161672 137.608078zM903.296941 545.793664 542.583552 917.856541c-8.138354 8.443299-19.024286 13.095249-30.608112 13.095249-11.582803 0-22.442128-4.631484-30.608112-13.115716L120.680547 545.815153c-48.563042-50.095955-75.306126-116.773564-75.306126-187.824783 0-71.000054 26.743084-137.724735 75.306126-187.771571 48.279586-49.79715 112.443955-77.216639 180.702572-77.216639 64.094784 0 125.635395 24.629957 173.33579 69.306482l37.256532 34.930557 37.284161-34.930557c47.672766-44.698015 109.234867-69.306482 173.330674-69.306482 68.284199 0 132.448568 27.445072 180.707688 77.216639 48.563042 50.046836 75.306126 116.77254 75.306126 187.771571C978.603067 429.021124 951.859983 495.697709 903.296941 545.793664L903.296941 545.793664zM903.296941 545.793664M270.429129 186.400341l-2.490727 0.025583-0.041956 0.048095c-70.797439 1.36816-127.98286 59.394738-127.98286 130.469494 0 11.860119 9.650801 21.51092 21.509896 21.51092 11.860119 0 21.516036-9.650801 21.516036-21.532409 0-48.237631 39.258119-87.517239 87.512123-87.517239 11.865235 0 21.516036-9.650801 21.516036-21.516036C291.966655 196.029652 282.289248 186.400341 270.429129 186.400341L270.429129 186.400341zM270.429129 186.400341" p-id="6379" fill="#2c2c2c"></path></svg>